# xmcd
#
# Track frame offsets:
#	150
#	9737
#	20513
#	32116
#	49559
#	64083
#	80701
#	101298
#	113305
#	127835
#	140852
#	148876
#	160229
#	174185
#
# Disc length: 2520 seconds
#
# Revision: 0
# Processed by: cddbd v1.5.2PL0 Copyright (c) Steve Scherf et al.
# Submitted via: SynApp - FreeCDDB Version: 2.3
#
DISCID=b309d60e
DTITLE=Johnny Cash - American III (Solitary Man)
DYEAR=2000
DGENRE=Country
TTITLE0=I won't back down
TTITLE1=Solitary Man
TTITLE2=That Lucky old Sun
TTITLE3=One
TTITLE4=Nobody
TTITLE5=I see a Darkness
TTITLE6=The Mercy Seat
TTITLE7=Would you lay with me
TTITLE8=American III
TTITLE9=Before my Time
TTITLE10=Country Trash
TTITLE11=Mary of the Wild Moor
TTITLE12=I'm leaving now
TTITLE13=Wayfaring Stranger
EXTD=
EXTT0=
EXTT1=
EXTT2=
EXTT3=
EXTT4=
EXTT5=
EXTT6=
EXTT7=
EXTT8=
EXTT9=
EXTT10=
EXTT11=
EXTT12=
EXTT13=
PLAYORDER=
